# xmcd
#
# Track frame offsets: 
#        150
#        14428
#        28416
#        42125
#        55262
#        69120
#        83154
#        98838
#        112478
#        126001
#        141256
#
# Disc length: 2078 seconds
#
# Revision: 1
# Processed by: cddbd v1.5.2PL0 Copyright (c) Steve Scherf et al.
# Submitted via: ExactAudioCopyFreeDBPlugin 1.0
#
DISCID=98081c0b
DTITLE=Frei - Beautiful Voice
DYEAR=2006
DGENRE=Schlager
TTITLE0=Beautiful Voice
TTITLE1=Sommerfeeling am Wörthersee
TTITLE2=Nur ein Blick
TTITLE3=Cheerio
TTITLE4=Ich vermisse die Sonne
TTITLE5=Es wird nie kalt im Sommerland
TTITLE6=Ich lass dir meine Träume da
TTITLE7=Scha la la la amore mio
TTITLE8=Gib's doch einfach zu
TTITLE9=Wunder geschehen
TTITLE10=Prinzessin aus Eis
EXTD=
EXTT0=
EXTT1=
EXTT2=
EXTT3=
EXTT4=
EXTT5=
EXTT6=
EXTT7=
EXTT8=
EXTT9=
EXTT10=
PLAYORDER=
